<svg id="Capa_1" enable-background="new 0 0 502.455 502.455" height="512" viewBox="0 0 502.455 502.455" width="512" xmlns="http://www.w3.org/2000/svg"><g><path d="m326.96 94.652c7.612-34.489-8.942-69.783-40.328-85.98-22.404-11.562-49.018-11.562-71.422 0-31.386 16.198-47.94 51.491-40.328 85.98l7.416 31.52h135.906z" fill="#a79ba7"/><path d="m328.653 73.393c-9.829-6.61-20.562-11.949-31.961-15.749l-.64-.213c-5.376-1.789-11.004-2.701-16.67-2.701h-59.222c-.744 0-1.589.05-2.495.136-6.964.664-11.891-6.589-8.677-12.803 7.227-13.968 18.687-25.786 33.425-33.392 7.041-3.634 14.498-6.124 22.11-7.473-16.607-2.945-33.95-.455-49.312 7.473-31.386 16.198-47.94 51.491-40.328 85.98l7.416 31.52h13.376 13.825 108.704l8.756-31.52c1.569-7.11 2.096-14.254 1.693-21.258z" fill="#918291"/><path d="m289.727 76.405.639.213c33.491 11.164 59.866 37.299 71.334 70.688l1.652 4.811 5.973 53.163-243.653-8.792 10.541-44.371 1.652-4.811c11.468-33.388 37.842-59.524 71.334-70.688l.639-.213c3.328-1.109 6.813-1.675 10.321-1.675h59.247c3.508 0 6.993.565 10.321 1.675z" fill="#a79ba7"/><g id="XMLID_319_"><g><path d="m393.063 230.9v56.93h-286.6v-56.93c0-24.29 7.36-47.35 20.36-66.63 12.99-19.27 31.61-34.74 54.12-43.85 22.07-8.93 45.44-13.39 68.82-13.39 23.37 0 46.74 4.46 68.81 13.39 45.02 18.21 74.49 61.91 74.49 110.48z" fill="#f9f7f8"/></g></g><g fill="#ffe5c2"><path d="m376.161 309.693c13.999 0 25.348-11.349 25.348-25.348 0-13.999-11.349-25.348-25.348-25.348h-32.05v50.696z"/><path d="m125.405 309.693c-13.999 0-25.348-11.349-25.348-25.348 0-13.999 11.349-25.348 25.348-25.348h40.99v50.696z"/><path d="m296.785 434.516 6.697 18.917c.871 2.46 2.892 4.336 5.41 5.022l76.447 20.822c10.625 2.894 20.4 8.296 28.504 15.751l2.04 1.877.934 1.127c1.461 1.764.202 4.431-2.089 4.424l-327.018-1.076c-2.314-.008-3.547-2.731-2.027-4.475l2.04-1.877c8.104-7.456 17.879-12.858 28.504-15.751l76.447-20.822c2.518-.686 4.539-2.562 5.41-5.022l6.697-18.917 12.198-37.823 73.919-3.345z"/></g><g><g id="XMLID_313_"><g><path d="m364.353 238.55v71.52c0 54.09-30.12 103.68-78.12 128.61l-18.24 9.48c-11.1 5.77-24.32 5.77-35.42 0l-18.24-9.48c-48-24.93-78.12-74.52-78.12-128.61v-71.52c0-3.18 1.6-6.15 4.25-7.91l1.05-.69c65.94-43.65 151.6-43.65 217.54 0l1.05.69c2.65 1.76 4.25 4.73 4.25 7.91z" fill="#97da7b"/></g></g><path d="m364.353 254.345v-15.795c0-3.18-1.6-6.15-4.25-7.91l-1.05-.69c-65.94-43.65-151.6-43.65-217.54 0l-1.05.69c-2.65 1.76-4.25 4.73-4.25 7.91v15.131c69.681-44.045 158.652-43.823 228.14.664z" fill="#80d261"/><g><path d="m145.595 200.393c-1.492 0-2.999-.444-4.313-1.369-3.386-2.385-4.197-7.064-1.813-10.45l1.514-2.149c16.241-23.063 41.612-38.272 69.607-41.728 4.098-.51 7.854 2.413 8.362 6.524s-2.413 7.855-6.524 8.362c-23.802 2.938-45.372 15.87-59.182 35.479l-1.514 2.149c-1.459 2.073-3.779 3.182-6.137 3.182z" fill="#efedef"/></g><g><g><path d="m355.97 200.393c-2.357 0-4.678-1.108-6.139-3.182l-1.514-2.149c-13.81-19.609-35.38-32.541-59.182-35.479-4.111-.507-7.032-4.251-6.524-8.362s4.248-7.031 8.362-6.524c27.995 3.456 53.366 18.665 69.607 41.729l1.514 2.148c2.385 3.386 1.573 8.065-1.813 10.45-1.312.924-2.818 1.369-4.311 1.369z" fill="#efedef"/></g></g><ellipse cx="199.189" cy="275.046" fill="#ffe5c2" rx="35.397" ry="32.601"/><g><path d="m199.189 285.849c-4.143 0-7.5-3.358-7.5-7.5v-8.075c0-4.142 3.357-7.5 7.5-7.5s7.5 3.358 7.5 7.5v8.075c0 4.142-3.357 7.5-7.5 7.5z" fill="#b5adb6"/></g><ellipse cx="302.376" cy="275.046" fill="#ffe5c2" rx="35.397" ry="32.601"/><g><path d="m302.377 285.849c-4.143 0-7.5-3.358-7.5-7.5v-8.075c0-4.142 3.357-7.5 7.5-7.5s7.5 3.358 7.5 7.5v8.075c0 4.142-3.358 7.5-7.5 7.5z" fill="#b5adb6"/></g><ellipse cx="250.283" cy="377.363" fill="#ffe5c2" rx="45.502" ry="35.462"/><g><path d="m250.759 386.828c-6.524 0-13.047-1.645-18.865-4.936-3.605-2.04-4.875-6.615-2.836-10.221 2.04-3.605 6.614-4.875 10.221-2.836 7.08 4.005 15.879 4.006 22.961 0 3.606-2.039 8.181-.77 10.221 2.836 2.039 3.605.77 8.181-2.836 10.22-5.819 3.291-12.343 4.937-18.866 4.937z" fill="#fe99a0"/></g></g></g></svg>