<svg id="Layer_1" data-name="Layer 1" xmlns="http://www.w3.org/2000/svg" viewBox="0 0 616.84 157.99"><defs><style>.cls-1{fill:#fff;}</style></defs><title>logo</title><path class="cls-1" d="M3.65,4.38H58c.32,0,.22,1.6,0,1.6H46.74s-3.12-.14-2.19,1.59c.18.36,38.35,104.72,38.35,104.72s.67,1.8,1.2,2c0,0,33.91-104.79,34-104.88.33-1,1.55-3.37-.55-3.37H105.25c-.22,0-.22-1.6,0-1.6h29.21c.22,0,.22,1.6,0,1.6H123.6c-3-.06-3,.86-3.55,2.4-.27.78-47.23,147.14-47.23,147.14s-.2-.63-.39-1.2C52.58,96.94,21.77,17,19.33,8.5,18.6,6,18.23,6,16.73,6H3.65c-.37,0-.32-1.66,0-1.66" transform="translate(-3.39 0)"/><path class="cls-1" d="M145,78.08C145,36.2,153,2,182.72,2c31.93,0,38.21,35.65,38.21,76.1,0,41.89-6.1,78-37.94,78-34.19,0-38-33.95-38-78m37.42,79.19c31.68.11,66-35,66-78.38C248.53,33.42,215.57,1,182.93.77,149.54.5,117.48,37.18,117.48,78.89c0,43.14,30.28,78.26,64.92,78.38" transform="translate(-3.39 0)"/><path class="cls-1" d="M338.13,92.67h12.39s2.31-.25,2.28.86V129c0,27.28-27.19,27.59-34.87,26.72-28.42-3.21-29-61.9-29.17-77.32C288.38,36.51,295,0,323.55,1.48,357.52,3.2,366.4,51.86,367,54c1.13.41,1.14-.53,1.14-.53L368.15.42s-.23-.45-.89.17c-.25.23-.52.5-.84.83C351.38,16.78,343.87.72,322,0c-26.9-.87-60.31,36.43-60.75,79.45-.43,43.3,28,76.68,59.08,77.86,16.85.64,16.49-4,37.27-10.5,12.72-3.94,18.72,4.63,19.19,8.17.79.55.87-.39.87-.39V93.73c0-1.21,1.67-1,1.67-1h11.47c.28,0,.28-1.68,0-1.68H338.06c-.4,0-.4,1.62.07,1.62" transform="translate(-3.39 0)"/><path class="cls-1" d="M616.74,4.35V58.9c0,.26-1.06.33-1.06,0s1-53-47.88-53H549.47c-1,0-1.64.18-1.64,1V75c0,.64.63,1,1.62,1h6.11c29.09,0,26.75-29.19,26.75-29.53s1.14-.26,1.14,0,.06,61.29.06,61.56-.87.33-.87,0S582,77.58,554.89,77.58h-5.44c-1,0-1.62.34-1.62,1v73.3c0,.52.61,1,1.64,1,4.1,0,14.66,0,17.59.05,52.53.13,51.82-56.26,51.82-56.52s1.35-.27,1.35,0v58.4H509.36c-.33,0-.3-1.61,0-1.61h11.08c1,0,1.62-.34,1.62-1,0-12.72,0-144.2,0-145.3,0-.94-1.23-1-1.62-1H495.9s-1.59,0-1.59.92c0,10.35,0,97.59,0,110v.06c.08,30.76-23.56,40.8-40.58,41.08l0-.05c-20,.1-56-3.28-56-47.62,0,0-.09-100.93-.14-102.32-.06-2.21-2.78-2.08-2.78-2.08H383c-.36,0-.29-1.6,0-1.6H438.4c.3,0,.21,1.6,0,1.6H426.63S423,5.72,423,8.13c0,3.4.06,112.6.06,116.46,0,17,9.64,32.1,30.62,31.75,16.35-.28,39.08-9.91,39-39.49,0-1.44,0-99,0-110C492.64,6,491,5.93,491,5.93H475.59c-.33,0-.26-1.54.06-1.54l141.09,0" transform="translate(-3.39 0)"/><path class="cls-1" d="M151.32,71.85h-4.27v-.62h9.22v.62H152v12.2h-.68Z" transform="translate(-3.39 0)"/><path class="cls-1" d="M163.08,84.29a5.1,5.1,0,0,1-2-.35,4,4,0,0,1-1.4-.94,3.89,3.89,0,0,1-.85-1.41,5,5,0,0,1-.28-1.7V71.23h.67V80a4.19,4.19,0,0,0,.24,1.42,3.32,3.32,0,0,0,.72,1.18,3.46,3.46,0,0,0,1.2.82,4.29,4.29,0,0,0,1.67.3,4.46,4.46,0,0,0,1.65-.29,3.3,3.3,0,0,0,1.19-.81,3.54,3.54,0,0,0,.73-1.19,4.13,4.13,0,0,0,.25-1.45V71.23h.66v8.69a4.71,4.71,0,0,1-.29,1.68,3.93,3.93,0,0,1-.85,1.4,4.15,4.15,0,0,1-1.41.94A5.1,5.1,0,0,1,163.08,84.29ZM161.3,69.4h.86v1h-.86Zm2.73,0h.87v1H164Z" transform="translate(-3.39 0)"/><path class="cls-1" d="M171,71.23h4a5,5,0,0,1,3.22.9,3.31,3.31,0,0,1,.21,4.7,4.27,4.27,0,0,1-2.46,1l3.44,6.2h-.78l-3.41-6.13h-3.55v6.13H171Zm4,6.1a4.63,4.63,0,0,0,2.72-.68,2.39,2.39,0,0,0,.93-2.08,2.36,2.36,0,0,0-.93-2,4.6,4.6,0,0,0-2.74-.69h-3.29v5.48Z" transform="translate(-3.39 0)"/><path class="cls-1" d="M182.42,71.23h.67v7.5l6.84-7.5h.83l-4.43,4.83,5.13,8h-.78l-4.8-7.48-2.79,3v4.46h-.67Z" transform="translate(-3.39 0)"/><path class="cls-1" d="M193.85,68.24h.74v.92h-.74Zm0,3h.68V84.05h-.68Z" transform="translate(-3.39 0)"/><path class="cls-1" d="M201.26,78.28l-4.31-7h.74l3.93,6.46,3.91-6.46h.71l-4.31,7v5.77h-.67Z" transform="translate(-3.39 0)"/><path class="cls-1" d="M208.53,71.23h7.34v.62H209.2v5.08h5v.62h-5v5.87h6.93v.63h-7.6Z" transform="translate(-3.39 0)"/></svg>